<svg aria-hidden="true" style="position:absolute;width:0;height:0;overflow:hidden" xmlns="http://www.w3.org/2000/svg">
  <defs>
      <!-- Hero icons -->
    
    <!-- Arrows -->
    <symbol id="arrow" viewBox="0 0 82 32">
      <path d="M81.414 17.414a2 2 0 0 0 0-2.828L68.686 1.858a2 2 0 1 0-2.828 2.829l11.314 11.314-11.314 11.314a2 2 0 1 0 2.828 2.828l12.728-12.728zM0 18h80v-4H0v4z"/>
    </symbol>
    <symbol id="btn-arrow" viewBox="0 0 22 32">
      <path stroke-linejoin="round" stroke-linecap="round" stroke-width="6.4" d="M3.2 3.2 19.034 16 3.2 28.8"/>
    </symbol>
    <symbol id="btn-arrow2" viewBox="0 0 32 32">
    <path stroke-linejoin="round" stroke-linecap="round" stroke-miterlimit="4" stroke-width="5.3333" d="M10.667 5.333l13.2 10.667-13.2 10.667"></path>
    </symbol>
    <symbol id="btn-arrow3" viewBox="0 0 32 32">
    <path stroke-linejoin="round" stroke-linecap="round" stroke-miterlimit="4" stroke-width="5.3333" d="M10.667 5.333l13.2 10.667-13.2 10.667"></path>
    </symbol>
        <!-- Modal close button icon -->
    <symbol id="modal-close-btn" viewBox="0 0 32 32">
      <path d="m17.253 16 7.37-7.37a.89.89 0 0 0-1.256-1.252l.001-.001L16 14.747 8.63 7.369a.893.893 0 0 0-1.262 1.262l-.001-.001L14.745 16l-7.376 7.368a.89.89 0 1 0 1.252 1.256l.001-.001 7.376-7.37 7.37 7.37a.89.89 0 0 0 1.254-1.256l.001.001L17.253 16z"/>
    </symbol>
    <symbol id="modal-close-btn-white" viewBox="0 0 32 32">
<path fill="#fcfcfc" style="fill: var(--color1, #fcfcfc)" d="M23.884 6.706l-7.884 7.884-7.884-7.884c-0.19-0.174-0.439-0.267-0.696-0.261s-0.502 0.11-0.684 0.292c-0.182 0.182-0.286 0.427-0.292 0.684s0.088 0.506 0.261 0.696l7.88 7.884-7.882 7.882c-0.096 0.092-0.173 0.202-0.226 0.324s-0.081 0.253-0.083 0.386 0.023 0.265 0.073 0.388c0.050 0.123 0.124 0.235 0.218 0.329s0.206 0.169 0.329 0.219 0.255 0.075 0.388 0.074c0.133-0.002 0.264-0.029 0.386-0.082s0.232-0.13 0.324-0.226l7.886-7.882 7.884 7.884c0.19 0.174 0.439 0.267 0.696 0.262s0.502-0.11 0.684-0.292c0.182-0.182 0.286-0.427 0.292-0.684s-0.088-0.506-0.262-0.696l-7.884-7.884 7.884-7.886c0.096-0.092 0.173-0.202 0.226-0.324s0.081-0.253 0.083-0.386c0.002-0.133-0.023-0.265-0.073-0.388s-0.124-0.235-0.218-0.329c-0.094-0.094-0.206-0.169-0.329-0.219s-0.255-0.075-0.388-0.074-0.264 0.029-0.386 0.082c-0.122 0.053-0.232 0.13-0.324 0.226v0.002z"></path>
</symbol>
    <!-- burger -->
    <symbol id="burger" viewBox="0 0 32 32">
<path fill="none" stroke="#fff" style="stroke: var(--color1, #fff)" stroke-linejoin="miter" stroke-linecap="round" stroke-miterlimit="4" stroke-width="2" d="M6 10h20"></path>
<path fill="none" stroke="#fff" style="stroke: var(--color1, #fff)" stroke-linejoin="miter" stroke-linecap="round" stroke-miterlimit="4" stroke-width="2" d="M6 16h20"></path>
<path fill="none" stroke="#fff" style="stroke: var(--color1, #fff)" stroke-linejoin="miter" stroke-linecap="round" stroke-miterlimit="4" stroke-width="2" d="M6 22h20"></path>
</symbol>
  </defs>
</svg>
